<?xml version="1.0" standalone="no"?>
<!DOCTYPE svg PUBLIC "-//W3C//DTD SVG 20010904//EN"
 "http://www.w3.org/TR/2001/REC-SVG-20010904/DTD/svg10.dtd">
<svg version="1.0" xmlns="http://www.w3.org/2000/svg"
 width="1920.000000pt" height="1080.000000pt" viewBox="0 0 1920.000000 1080.000000"
 preserveAspectRatio="xMidYMid meet">

<g transform="translate(0.000000,1080.000000) scale(0.100000,-0.100000)"
fill="#000000" stroke="none">
<path d="M7364 6971 c-97 -25 -186 -99 -227 -189 -17 -37 -22 -66 -22 -133 0
-79 3 -92 35 -155 61 -120 169 -181 304 -172 125 8 226 73 284 183 24 44 27
61 26 140 0 101 -18 151 -80 223 -68 80 -220 129 -320 103z"/>
<path d="M1070 6643 c-268 -21 -496 -122 -627 -276 -95 -112 -134 -226 -134
-387 1 -293 150 -502 466 -655 133 -64 222 -96 504 -179 306 -91 394 -128 449
-190 50 -57 53 -124 11 -208 -60 -118 -202 -197 -391 -217 l-83 -8 66 -2 c134
-2 327 43 464 109 330 160 454 503 298 820 -27 57 -56 95 -118 155 -142 140
-300 219 -730 365 -376 128 -486 185 -529 274 -37 78 -10 183 69 261 79 78
202 121 384 134 100 8 102 8 26 8 -44 0 -100 -2 -125 -4z"/>
<path d="M11770 6647 c0 -2 7 -18 16 -36 28 -57 33 -207 34 -996 0 -782 -5
-929 -34 -987 -9 -17 -16 -33 -16 -35 0 -1 169 -3 375 -3 206 0 375 2 375 5 0
4 -8 20 -17 38 -17 30 -18 96 -18 987 0 891 1 957 18 987 9 18 17 34 17 38 0
3 -169 5 -375 5 -206 0 -375 -2 -375 -3z"/>
<path d="M13253 6626 c35 -53 38 -134 35 -1046 l-3 -895 -22 -47 -22 -48 800
0 799 0 0 23 c1 12 9 130 19 262 11 132 18 241 17 242 -1 2 -24 -29 -50 -67
-131 -191 -359 -352 -581 -409 -89 -23 -200 -40 -257 -41 l-38 0 0 943 c0 950
3 1033 36 1085 l14 22 -381 0 -381 0 15 -24z"/>
<path d="M17126 6618 c29 -56 35 -242 32 -1061 l-3 -799 -33 -29 c-18 -16 -42
-29 -54 -29 -21 0 -21 0 -3 -20 11 -12 52 -37 93 -57 66 -33 85 -38 168 -41
78 -4 106 -1 165 18 136 44 254 161 299 295 l22 65 39 -58 c144 -217 368 -333
585 -302 274 38 493 270 570 605 27 116 25 338 -4 457 -90 368 -333 598 -630
598 -164 0 -285 -50 -398 -165 -51 -52 -83 -95 -113 -156 l-42 -84 3 355 c3
339 4 357 24 398 l21 42 -379 0 -379 0 17 -32z m989 -672 c101 -47 190 -173
232 -326 24 -89 24 -300 0 -388 -56 -207 -191 -342 -345 -344 -63 -1 -134 25
-165 60 -18 19 -19 46 -17 444 1 399 2 425 20 464 52 107 162 143 275 90z"/>
<path d="M1330 6625 c127 -31 226 -92 341 -211 82 -86 117 -134 180 -246 l41
-73 -6 145 c-4 80 -9 199 -12 266 l-7 121 -111 7 c-61 3 -194 6 -296 5 -176
-1 -182 -1 -130 -14z"/>
<path d="M6700 6503 c-56 -105 -167 -199 -302 -252 -96 -39 -171 -51 -353 -60
-119 -6 -132 -8 -63 -9 l87 -2 3 -657 3 -658 23 -57 c47 -117 144 -213 260
-259 48 -20 76 -23 177 -24 120 0 122 0 196 37 41 21 83 46 94 58 18 20 18 20
-9 20 -17 0 -39 11 -57 29 l-29 29 0 741 0 740 143 4 142 3 -142 2 -143 2 -2
180 -3 180 -25 -47z"/>
<path d="M2903 6236 c-298 -79 -517 -304 -600 -616 -25 -96 -23 -279 5 -394
99 -401 484 -670 894 -625 342 38 667 262 782 540 14 33 11 31 -52 -31 -232
-228 -593 -221 -829 16 -110 111 -168 248 -175 414 l-3 75 539 3 538 2 -7 28
c-3 15 -20 60 -35 100 -90 224 -287 402 -535 482 -60 20 -97 24 -250 27 -165
3 -187 1 -272 -21z m325 -2 c49 -20 90 -60 113 -109 16 -35 19 -67 19 -267 l0
-228 -221 0 -221 0 2 208 c3 245 12 292 68 348 21 21 54 43 73 50 48 18 123
17 167 -2z"/>
<path d="M4206 6240 c-32 -10 -84 -36 -114 -57 l-55 -38 34 -7 c18 -3 44 -18
57 -33 l23 -27 -3 -706 c-3 -651 -4 -710 -20 -739 -10 -18 -18 -34 -18 -38 0
-3 169 -5 376 -5 354 0 376 1 369 18 -36 84 -36 83 -32 656 2 408 6 571 15
598 39 114 214 185 308 123 55 -36 55 -32 52 -698 -3 -601 -3 -613 -24 -654
l-21 -43 379 0 379 0 -16 30 c-28 55 -34 170 -35 670 0 400 -3 507 -15 558
-47 200 -219 363 -423 403 -81 15 -199 7 -277 -20 -74 -26 -181 -98 -222 -149
-43 -53 -74 -117 -94 -192 -14 -52 -17 -58 -18 -32 -2 85 -77 233 -148 291
-50 41 -127 81 -187 97 -73 20 -199 17 -270 -6z"/>
<path d="M8135 6242 c-57 -20 -135 -63 -155 -86 -11 -14 -9 -16 12 -16 32 0
63 -23 77 -58 9 -21 11 -203 9 -713 -3 -680 -3 -684 -25 -731 l-22 -48 379 0
379 0 -22 48 c-22 47 -22 52 -22 592 0 408 3 559 13 601 39 169 264 242 349
112 17 -25 18 -67 21 -578 3 -557 -3 -687 -33 -745 l-16 -30 379 0 379 0 -21
43 c-20 41 -21 57 -26 612 -5 512 -8 576 -24 625 -49 150 -143 262 -276 329
-101 50 -172 65 -280 58 -187 -12 -348 -115 -421 -271 -16 -33 -32 -83 -36
-111 l-6 -50 -19 75 c-24 99 -50 150 -110 215 -56 61 -127 105 -207 129 -73
21 -211 20 -276 -2z"/>
<path d="M10575 6245 c-167 -37 -291 -104 -412 -223 -163 -160 -243 -356 -243
-592 0 -145 24 -253 85 -376 152 -308 486 -491 826 -453 300 34 573 194 721
424 36 55 78 136 78 149 0 1 -30 -28 -68 -64 -79 -78 -181 -133 -287 -155 -86
-18 -119 -18 -220 0 -281 50 -495 308 -495 597 l0 68 539 0 540 0 -25 72 c-94
276 -317 481 -599 549 -96 23 -344 25 -440 4z m288 -10 c19 -8 49 -29 67 -47
60 -60 64 -80 68 -330 l4 -228 -221 0 -221 0 0 225 c0 245 5 272 58 329 57 61
167 84 245 51z"/>
<path d="M7108 5452 c-3 -766 -3 -767 -25 -814 l-22 -48 379 0 379 0 -22 48
c-22 47 -22 49 -25 805 -2 416 -5 757 -7 757 -3 0 -39 -14 -80 -30 -94 -37
-251 -64 -324 -55 -81 10 -144 32 -200 69 l-50 34 -3 -766z"/>
<path d="M15842 6209 c-115 -19 -253 -81 -332 -149 l-35 -29 53 19 c72 27 135
25 202 -6 102 -47 125 -83 180 -275 23 -79 43 -152 46 -161 5 -16 -3 -18 -73
-18 -179 0 -419 -44 -579 -105 -234 -90 -344 -225 -344 -421 0 -271 189 -471
480 -506 226 -27 471 87 587 275 57 92 90 173 37 91 -79 -122 -259 -130 -369
-17 -55 57 -76 114 -76 207 0 181 103 359 253 433 92 46 82 59 159 -217 38
-135 68 -263 69 -285 0 -24 4 -35 8 -27 5 7 13 -7 21 -40 53 -213 213 -356
427 -383 139 -18 319 65 405 187 l20 28 -29 -6 c-45 -9 -87 18 -106 68 -8 24
-65 225 -126 447 -116 424 -137 486 -191 577 -44 72 -148 174 -223 220 -72 43
-181 80 -272 94 -80 11 -119 11 -192 -1z"/>
<path d="M350 5114 c-80 -74 -153 -143 -163 -153 -17 -17 -15 -20 55 -78 156
-129 338 -230 528 -293 113 -37 298 -71 383 -69 55 2 51 3 -33 10 -114 10
-183 23 -270 51 -306 97 -442 327 -365 617 7 28 12 51 12 51 -1 -1 -67 -62
-147 -136z"/>
</g>
</svg>
